<?xml version="1.0" encoding="UTF-8" standalone="no"?>
<svg
   xmlns:osb="http://www.openswatchbook.org/uri/2009/osb"
   xmlns:dc="http://purl.org/dc/elements/1.1/"
   xmlns:cc="http://creativecommons.org/ns#"
   xmlns:rdf="http://www.w3.org/1999/02/22-rdf-syntax-ns#"
   xmlns:svg="http://www.w3.org/2000/svg"
   xmlns="http://www.w3.org/2000/svg"
   xmlns:xlink="http://www.w3.org/1999/xlink"
   xmlns:sodipodi="http://sodipodi.sourceforge.net/DTD/sodipodi-0.dtd"
   xmlns:inkscape="http://www.inkscape.org/namespaces/inkscape"
   version="1.1"
   width="500.75735"
   height="500.75735"
   id="svg14"
   viewBox="0 0 500.75735 500.75735"
   sodipodi:docname="logo-full.svg"
   inkscape:version="1.0.1 (3bc2e813f5, 2020-09-07)">
  <metadata
     id="metadata20">
    <rdf:RDF>
      <cc:Work
         rdf:about="">
        <dc:format>image/svg+xml</dc:format>
        <dc:type
           rdf:resource="http://purl.org/dc/dcmitype/StillImage" />
        <dc:title></dc:title>
      </cc:Work>
    </rdf:RDF>
  </metadata>
  <defs
     id="defs18">
    <linearGradient
       id="linearGradient888"
       osb:paint="solid">
      <stop
         style="stop-color:#5a77b9;stop-opacity:1;"
         offset="0"
         id="stop886" />
    </linearGradient>
    <linearGradient
       id="linearGradient2858"
       osb:paint="solid">
      <stop
         style="stop-color:#000000;stop-opacity:1;"
         offset="0"
         id="stop2856" />
    </linearGradient>
    <linearGradient
       inkscape:collect="always"
       id="linearGradient1429">
      <stop
         style="stop-color:#e30016;stop-opacity:1"
         offset="0"
         id="stop1425" />
      <stop
         style="stop-color:#334c8d;stop-opacity:1"
         offset="1"
         id="stop1427" />
    </linearGradient>
    <marker
       style="overflow:visible"
       id="Arrow1Lend"
       refX="0"
       refY="0"
       orient="auto"
       inkscape:stockid="Arrow1Lend"
       inkscape:isstock="true">
      <path
         transform="matrix(-0.8,0,0,-0.8,-10,0)"
         style="fill-rule:evenodd;stroke:#000000;stroke-width:1pt"
         d="M 0,0 5,-5 -12.5,0 5,5 Z"
         id="path909" />
    </marker>
    <marker
       inkscape:stockid="DistanceStart"
       orient="auto"
       refY="0"
       refX="0"
       id="DistanceStart"
       style="overflow:visible"
       inkscape:isstock="true">
      <g
         id="g2300">
        <path
           id="path2306"
           d="M 0,0 H 2"
           style="fill:none;stroke:#ffffff;stroke-width:1.15;stroke-linecap:square" />
        <path
           id="path2302"
           d="M 0,0 13,4 9,0 13,-4 Z"
           style="fill:#000000;fill-rule:evenodd;stroke:none" />
        <path
           id="path2304"
           d="M 0,-4 V 40"
           style="fill:none;stroke:#000000;stroke-width:1;stroke-linecap:square" />
      </g>
    </marker>
    <marker
       style="overflow:visible"
       id="Arrow1Lstart"
       refX="0"
       refY="0"
       orient="auto"
       inkscape:stockid="Arrow1Lstart"
       inkscape:isstock="true">
      <path
         transform="matrix(0.8,0,0,0.8,10,0)"
         style="fill-rule:evenodd;stroke:#000000;stroke-width:1pt"
         d="M 0,0 5,-5 -12.5,0 5,5 Z"
         id="path906" />
    </marker>
    <linearGradient
       inkscape:collect="always"
       xlink:href="#linearGradient1429"
       id="linearGradient1431"
       x1="140.3942"
       y1="291.86172"
       x2="151.1487"
       y2="347.01279"
       gradientUnits="userSpaceOnUse" />
  </defs>
  <sodipodi:namedview
     pagecolor="#ffffff"
     bordercolor="#666666"
     borderopacity="1"
     objecttolerance="10"
     gridtolerance="10"
     guidetolerance="10"
     inkscape:pageopacity="0"
     inkscape:pageshadow="2"
     inkscape:window-width="1920"
     inkscape:window-height="1010"
     id="namedview16"
     showgrid="false"
     inkscape:zoom="1"
     inkscape:cx="146.75731"
     inkscape:cy="316.16647"
     inkscape:window-x="-6"
     inkscape:window-y="-6"
     inkscape:window-maximized="1"
     inkscape:current-layer="g2890"
     inkscape:document-rotation="0"
     inkscape:snap-page="true"
     fit-margin-top="0"
     fit-margin-left="0"
     fit-margin-right="0"
     fit-margin-bottom="0"
     showguides="true"
     inkscape:guide-bbox="true"
     inkscape:pagecheckerboard="true">
    <inkscape:grid
       type="xygrid"
       id="grid857"
       originx="107.37869"
       originy="101.37867" />
    <sodipodi:guide
       position="250.37869,365.37868"
       orientation="1,0"
       id="guide1011" />
    <sodipodi:guide
       position="-342.6213,250.37868"
       orientation="0,-1"
       id="guide1013" />
    <sodipodi:guide
       position="250.37869,250.37868"
       orientation="0.70710678,-0.70710678"
       id="guide1028" />
    <sodipodi:guide
       position="250.37869,250.37868"
       orientation="-0.70710678,-0.70710678"
       id="guide1030"
       inkscape:label=""
       inkscape:locked="false"
       inkscape:color="rgb(0,0,255)" />
  </sodipodi:namedview>
  <g
     id="g2890"
     transform="matrix(1.1671111,-2.5888817e-4,0.04958435,0.89532351,968.03359,243.65815)"
     style="stroke:none;stroke-width:0.978253;stroke-miterlimit:4;stroke-dasharray:none;stroke-opacity:1">
    <g
       id="g2900"
       transform="matrix(1.233807,0.00403507,-0.04414907,1.2315667,126.33289,-34.190342)"
       style="stroke:none;stroke-width:0.793548;stroke-miterlimit:4;stroke-dasharray:none;stroke-opacity:1">
      <ellipse
         style="fill:#4161b4;fill-opacity:1;stroke:none;stroke-width:0.793566;stroke-linejoin:round;stroke-miterlimit:4;stroke-dasharray:none;stroke-dashoffset:0;stroke-opacity:1;paint-order:markers stroke fill"
         id="path930"
         cx="-599.52167"
         cy="-33.887268"
         transform="matrix(0.99999554,-0.00298664,0.00662368,-0.99997806,0,0)"
         rx="173.85536"
         ry="227.07693" />
    </g>
    <ellipse
       style="fill:#ffffff;fill-opacity:1;stroke:none;stroke-width:0.978688;stroke-linejoin:round;stroke-miterlimit:4;stroke-dasharray:none;stroke-dashoffset:0;stroke-opacity:1;paint-order:markers stroke fill"
       id="path932"
       cx="-614.89099"
       cy="7.5129271"
       transform="matrix(0.99999996,2.8915599e-4,-0.0424464,0.99909875,0,0)"
       rx="164.71992"
       ry="221.96301" />
  </g>
  <path
     d="m 235.76409,199.69707 c 0.3125,-0.173 0.6063,-0.3662 0.901,-0.5871 l 5.5759,-3.5223 -0.002,6.6064 c 0.002,20.5439 1e-4,41.0905 -0.001,61.6315 l 0.002,3.6223 -3.6167,0.002 c -16.3532,2e-4 -32.6701,-10e-4 -49.0122,-7e-4 l -3.6166,-9e-4 10e-4,-3.625 c 0.002,-9.5488 8e-4,-19.0949 -10e-4,-28.6105 -14.6838,9.1643 -32.4486,15.5182 -49.4506,18.7781 -1.3305,-0.0382 -2.9415,-1.7021 -0.7211,-2.9676 8.2496,-2.6098 15.2312,-6.4118 21.9685,-10.3978 35.4012,-22.6736 67.7589,-54.498 96.3468,-85.2921 l 2.5531,-2.7362 2.6438,2.6474 c 16.328,16.1209 32.6778,32.2537 48.9917,48.3797 l 2.6017,2.5763 -2.5895,2.5789 c -4.9604,4.9676 -9.9488,9.937 -14.9378,14.9259 l -2.5639,2.5659 -2.5686,-2.5668 c -12.5294,-12.5526 -25.109,-25.1042 -37.6408,-37.6653 -4.818,4.7162 -9.789,9.2683 -14.863,13.658 z"
     style="fill:#334c8d;fill-rule:evenodd"
     id="path2" />
  <path
     d="m 256.77579,157.81337 c -29.3726,31.6416 -63.0716,63.6588 -97.3573,85.6663 7.4795,-1.6224 18.0834,-7.0171 27.109,-12.9378 1.5847,-0.8586 3.0229,0.4873 3.0825,2.451 0,10.2928 -0.001,20.5438 -0.001,30.8283 16.342,0.002 32.6617,0.004 49.0177,9e-4 -0.002,-20.5383 -0.003,-41.0822 -0.002,-61.6289 -12.9511,8.2217 -25.9048,16.435 -38.8502,24.6541 -2.0364,0.9431 -4.0878,-1.6697 -2.16,-3.0959 19.5775,-12.702 36.7069,-26.6319 51.785,-41.5836 0.67,-0.5952 1.7513,-0.6801 2.4742,0.003 12.9689,12.972 25.9923,25.9793 38.9638,38.9598 4.9914,-4.9777 9.9823,-9.9387 14.9547,-14.9309 -16.3446,-16.1243 -32.6612,-32.2504 -49.0166,-48.3861 z"
     style="fill:#e30016;fill-rule:evenodd"
     id="path4" />
  <path
     d="m 268.67239,154.25817 25.4869,-0.002 0.002,25.1721 z"
     style="fill:#334c8d;fill-rule:evenodd"
     id="path6" />
  <path
     d="m 278.15629,228.72897 -7e-4,45.1809 -11.753,0.002 0.002,-18.9639 -3.5192,-3e-4 0.001,18.9641 -11.7556,-0.004 5e-4,-45.1753 11.7529,-0.002 0.002,16.1498 3.5192,3e-4 -0.002,-16.1498 z m 29.8832,21.1611 -0.002,9.0779 c 8e-4,3.3297 -0.1737,5.7729 -0.5062,7.316 -0.3244,1.5491 -1.0499,3.0144 -2.1337,4.367 -1.0945,1.341 -2.519,2.3194 -4.2273,2.9647 -1.7229,0.6643 -3.7121,0.9766 -5.944,0.9767 -2.4883,0.002 -4.5908,-0.2718 -6.3406,-0.8317 -1.7202,-0.5281 -3.0665,-1.3916 -4.0065,-2.4804 -0.9759,-1.0985 -1.6618,-2.4432 -2.0802,-4.0237 -0.3848,-1.5877 -0.6045,-3.9165 -0.6034,-7.0594 l -0.002,-9.5072 c -10e-5,-3.43 0.3952,-6.1301 1.1335,-8.0437 0.7419,-1.9357 2.0694,-3.4859 3.997,-4.6669 1.95,-1.1829 4.4227,-1.7765 7.432,-1.7773 2.5384,-5e-4 4.7117,0.3986 6.5267,1.167 1.8157,0.746 3.2145,1.7032 4.175,2.9238 1.0112,1.2028 1.6645,2.4432 2.0535,3.7497 0.3513,1.2717 0.5282,3.2283 0.5287,5.8475 z m -11.2933,-2.7906 c 0.002,-1.9058 -0.0955,-3.0879 -0.2924,-3.5935 -0.1891,-0.4914 -0.6372,-0.7439 -1.3116,-0.7424 -0.6603,-8e-4 -1.1149,0.2508 -1.3271,0.7422 -0.235,0.5045 -0.3377,1.6907 -0.3372,3.591 l 10e-4,16.7266 c 5e-4,1.7387 0.1024,2.8902 0.3383,3.3972 0.2096,0.5395 0.6457,0.8195 1.2865,0.8196 0.7106,-3e-4 1.1402,-0.2556 1.3378,-0.7279 0.2089,-0.4748 0.3042,-1.5303 0.3046,-3.1352 z m 26.1386,-10.2048 -0.1977,3.5094 c 0.8563,-1.3827 1.9102,-2.4382 3.1081,-3.1515 1.2192,-0.6818 2.5919,-1.0519 4.1409,-1.0479 3.0177,-5e-4 5.4066,1.4064 7.123,4.1998 0.9398,-1.3799 2.0078,-2.4404 3.2029,-3.151 1.1886,-0.683 2.5361,-1.0511 3.9599,-1.0515 1.9365,7e-4 3.5137,0.4766 4.7741,1.4066 1.2573,0.9384 2.0481,2.0722 2.4132,3.4252 0.3512,1.3525 0.5317,3.5238 0.5316,6.5609 l 4e-4,26.3172 -10.9475,-0.003 8e-4,-24.1188 c -10e-4,-3.1597 -0.1164,-5.1254 -0.3159,-5.8735 -0.2157,-0.7654 -0.7204,-1.1536 -1.5062,-1.1532 -0.7802,6e-4 -1.3008,0.3865 -1.5274,1.1309 -0.2515,0.7379 -0.3512,2.7155 -0.3509,5.8976 l -6e-4,24.1159 -10.9449,0.002 -10e-4,-23.5086 c 0.002,-3.6334 -0.0949,-5.8185 -0.2653,-6.5266 -0.164,-0.7274 -0.6577,-1.1124 -1.4657,-1.1128 -0.4989,0.002 -0.9435,0.2067 -1.2795,0.5739 -0.3545,0.4167 -0.5623,0.8609 -0.5951,1.403 -0.0276,0.5508 -0.0547,1.7257 -0.0555,3.5034 l 9e-4,25.668 -10.9364,-0.003 -3e-4,-37.0141 z m 58.4714,19.164 -14.6173,0.002 -0.001,8.0107 c 0.003,1.6719 0.1264,2.7657 0.3828,3.2428 0.2316,0.4678 0.7019,0.7239 1.3929,0.7257 0.8666,-4e-4 1.4217,-0.3376 1.7033,-0.9826 0.2868,-0.6309 0.4414,-1.8682 0.4386,-3.7017 l 0.001,-4.8984 10.6996,3e-4 -9e-4,2.7389 c 5e-4,2.2988 -0.1546,4.0293 -0.4402,5.2648 -0.2742,1.2304 -0.9693,2.5436 -2.0293,3.9332 -1.0711,1.3892 -2.4034,2.4377 -4.022,3.1474 -1.6322,0.7009 -3.6645,1.0507 -6.1331,1.0481 -2.3685,9e-4 -4.4795,-0.3487 -6.3087,-1.0284 -1.8147,-0.6958 -3.2279,-1.6368 -4.2528,-2.8485 -1.0201,-1.1891 -1.7074,-2.4921 -2.1104,-3.9579 -0.3734,-1.434 -0.5847,-3.5228 -0.5861,-6.2758 l 10e-4,-10.7999 c -7e-4,-3.2517 0.4366,-5.7999 1.3268,-7.6747 0.8732,-1.8642 2.3051,-3.2938 4.2879,-4.2973 1.9851,-0.9923 4.2767,-1.5058 6.8512,-1.505 3.1682,-8e-4 5.7856,0.6088 7.8446,1.8092 2.0479,1.1972 3.4991,2.8083 4.3137,4.776 0.8476,1.9773 1.2572,4.7696 1.2574,8.3556 z m -11.3219,-6.0377 -5e-4,-2.7 c -5e-4,-1.9004 -0.1021,-3.1383 -0.2968,-3.7079 -0.1947,-0.5696 -0.614,-0.849 -1.2381,-0.8513 -0.7802,6e-4 -1.279,0.2423 -1.4712,0.7177 -0.1865,0.4755 -0.29,1.762 -0.29,3.8378 l 2e-4,2.7056 z"
     style="fill:#e30016;fill-rule:evenodd"
     id="path10" />
  <path
     d="m 143.35889,288.67067 -3e-4,44.8521 -10.1842,0.001 0.002,-30.2822 -4.0807,30.2818 -7.2195,0.002 -4.2992,-29.6076 -0.003,29.6078 -10.1953,6e-4 5e-4,-44.8576 15.1076,9e-4 c 0.4548,2.6964 0.9067,5.8747 1.4002,9.5337 l 1.6163,11.4053 2.6427,-20.9392 z m 29.7175,27.1042 -14.5086,4e-4 -0.002,7.9634 c 4e-4,1.6662 0.1246,2.735 0.3722,3.2257 0.226,0.4704 0.6917,0.6984 1.3994,0.7008 0.8247,0.001 1.3991,-0.3301 1.6971,-0.9633 0.2753,-0.6229 0.4326,-1.8573 0.4324,-3.6852 l 0.002,-4.8398 10.6076,0.003 2e-4,2.7083 c -0.002,2.2848 -0.1536,3.9987 -0.4304,5.2234 -0.2992,1.2267 -0.9663,2.5353 -2.0146,3.9113 -1.0516,1.3871 -2.3866,2.4356 -4.029,3.1082 -1.5822,0.7055 -3.6279,1.0381 -6.0604,1.0395 -2.3657,10e-4 -4.4438,-0.3335 -6.259,-1.0127 -1.8177,-0.6904 -3.2066,-1.611 -4.2344,-2.82 -0.992,-1.1938 -1.6964,-2.4862 -2.0946,-3.9295 -0.3738,-1.4257 -0.5515,-3.5161 -0.5506,-6.2551 l 5e-4,-10.708 c -0.004,-3.2295 0.429,-5.7416 1.28,-7.6094 0.8703,-1.8616 2.2879,-3.2805 4.2757,-4.2699 1.9735,-0.9787 4.2229,-1.4797 6.803,-1.4788 3.1458,10e-4 5.747,0.5964 7.7672,1.7898 2.0514,1.1778 3.4782,2.7685 4.2896,4.7473 0.8425,1.9659 1.2561,4.725 1.2574,8.2776 z m -11.2238,-5.9759 -6e-4,-2.6944 c -0.001,-1.8808 -0.1147,-3.0996 -0.2919,-3.691 -0.2376,-0.5377 -0.6263,-0.816 -1.2505,-0.8155 -0.8024,-1e-4 -1.2838,0.2199 -1.4644,0.6845 -0.1705,0.4928 -0.2817,1.7623 -0.2811,3.8214 l 5e-4,2.6973 z m 40.3182,-21.1309 0.002,44.855 -11.1874,0.002 0.001,-2.6749 c -1.0842,1.1268 -2.2049,1.9403 -3.3895,2.5092 -1.1805,0.5328 -2.4217,0.8098 -3.6923,0.8101 -1.7666,-4e-4 -3.2552,-0.4592 -4.5301,-1.3731 -1.2529,-0.9047 -2.1018,-1.9681 -2.4418,-3.1642 -0.3541,-1.191 -0.545,-3.1425 -0.545,-5.8565 l -5e-4,-17.2197 c -0.002,-2.8282 0.1933,-4.8192 0.5446,-6.0218 0.3421,-1.1779 1.189,-2.2127 2.4654,-3.096 1.3103,-0.8988 2.842,-1.3524 4.6391,-1.351 1.3932,-0.002 2.6501,0.2319 3.8133,0.7546 1.1306,0.4964 2.1827,1.2465 3.1378,2.2244 l -0.002,-10.3988 z m -11.1826,17.3419 c -0.003,-1.3626 -0.0995,-2.2576 -0.3561,-2.7291 -0.2179,-0.4618 -0.67,-0.681 -1.3721,-0.6832 -0.6353,1e-4 -1.0942,0.2153 -1.3399,0.6275 -0.2146,0.4021 -0.3498,1.3196 -0.3479,2.7825 l -0.002,17.9971 c 7e-4,1.4963 0.1217,2.5008 0.3394,2.9682 0.2398,0.4737 0.6446,0.6912 1.2771,0.691 0.7132,0.003 1.19,-0.2454 1.4378,-0.7968 0.2599,-0.5008 0.3613,-1.8097 0.3629,-3.8492 z m 26.7249,-17.3397 -0.003,5.8262 -11.5272,-10e-4 1e-4,-5.8263 z m -4e-4,8.0693 v 36.7856 l -11.53,-10e-4 1e-4,-36.7856 z m 28.7526,13.8826 -10.5464,-5e-4 -3e-4,-4.2213 c 0.001,-1.4712 -0.1247,-2.4926 -0.341,-3.0017 -0.2539,-0.5494 -0.7048,-0.802 -1.3401,-0.8019 -0.6353,1e-4 -1.0638,0.222 -1.3167,0.684 -0.1976,0.4696 -0.3368,1.5041 -0.3375,3.1201 l -8e-4,17.3368 c -9e-4,1.3039 0.1817,2.2995 0.5182,2.9549 0.3425,0.6445 0.8298,0.9735 1.4651,0.9734 0.7551,-0.001 1.2577,-0.3489 1.5344,-1.0108 0.2808,-0.7007 0.4119,-1.9834 0.4122,-3.906 l 0.002,-4.3801 9.9473,0.002 c -0.0147,2.9725 -0.1046,5.1483 -0.3099,6.6402 -0.1817,1.4509 -0.7972,2.9592 -1.8488,4.5079 -1.0462,1.5545 -2.4124,2.6965 -4.0978,3.4847 -1.6803,0.7996 -3.7383,1.1679 -6.2265,1.1674 -3.1541,-0.002 -5.6602,-0.5264 -7.4948,-1.6103 -1.8435,-1.0703 -3.1695,-2.5933 -3.9289,-4.5452 -0.7682,-1.9383 -1.1371,-4.7013 -1.1365,-8.3069 l -5e-4,-10.4405 c 2e-4,-3.1151 0.3141,-5.4837 0.9378,-7.0669 0.6375,-1.5771 1.9634,-3.002 4.0074,-4.2458 2.0662,-1.2402 4.543,-1.8698 7.4714,-1.8679 2.9396,-4e-4 5.417,0.6294 7.4887,1.8665 2.0695,1.2174 3.4476,2.7674 4.1473,4.6727 0.6669,1.8873 0.9915,4.5596 0.9942,7.9953 z m 13.342,0.3712 -10.4989,-0.002 -0.003,-2.4605 c 0.002,-2.8476 0.3263,-5.0347 0.9881,-6.5915 0.6696,-1.5397 1.974,-2.9097 3.9438,-4.1003 1.9798,-1.1597 4.5333,-1.7531 7.7041,-1.7511 3.784,-0.002 6.6529,0.667 8.5621,2.007 1.9311,1.352 3.0916,2.9891 3.4589,4.919 0.4084,1.948 0.5883,5.9722 0.5875,12.0603 l 0.002,18.4486 -10.9003,10e-4 0.003,-3.285 c -0.6617,1.3144 -1.5626,2.2999 -2.645,2.9754 -1.0591,0.6457 -2.3656,0.9567 -3.8563,0.9548 -1.956,0.001 -3.754,-0.5351 -5.4066,-1.6432 -1.6197,-1.0959 -2.4381,-3.5124 -2.44,-7.2072 l 4e-4,-3.0427 c -0.002,-2.7418 0.4424,-4.6099 1.3126,-5.591 0.8545,-1.0122 3.004,-2.1632 6.4365,-3.5117 3.6801,-1.4179 5.6429,-2.4082 5.9389,-2.905 0.2429,-0.4931 0.365,-1.517 0.3651,-3.0355 7e-4,-1.9365 -0.1616,-3.1933 -0.4283,-3.7738 -0.2834,-0.5811 -0.764,-0.8626 -1.441,-0.8639 -0.7552,0.002 -1.2315,0.2384 -1.3991,0.7285 -0.1819,0.5008 -0.285,1.7761 -0.2836,3.813 z m 3.5547,5.0476 c -1.7956,1.311 -2.8345,2.4171 -3.1241,3.2875 -0.2875,0.8928 -0.4301,2.1834 -0.4297,3.8469 -0.001,1.8668 0.1426,3.0979 0.3793,3.6606 0.2336,0.5738 0.7345,0.8309 1.4729,0.8288 0.7161,0 1.1696,-0.2183 1.3688,-0.6571 0.2243,-0.438 0.3331,-1.5599 0.3305,-3.399 z m 26.5542,-27.371 -5e-4,44.8549 -11.5327,-0.002 4e-4,-44.8549 z m 39.0649,13.5601 -10.8221,-0.002 0.002,-3.3268 c 9e-4,-1.5408 -0.1376,-2.5237 -0.4153,-2.9486 -0.2857,-0.4362 -0.7498,-0.6308 -1.3934,-0.631 -0.7105,-0.002 -1.2271,0.2693 -1.5951,0.8332 -0.3575,0.5838 -0.5305,1.4694 -0.5286,2.6119 7e-4,1.4935 0.1835,2.6423 0.6168,3.4014 0.3747,0.7598 1.494,1.6599 3.2954,2.737 5.1976,3.0821 8.4279,5.6107 9.7913,7.5809 1.3545,1.9838 2.0236,5.1641 2.0267,9.5444 -5e-4,3.2071 -0.3727,5.5653 -1.1336,7.0879 -0.741,1.5122 -2.1754,2.7717 -4.3125,3.8089 -2.1562,1.0253 -4.6589,1.5175 -7.501,1.5185 -3.104,3e-4 -5.7808,-0.5836 -7.9711,-1.7746 -2.2335,-1.1508 -3.6548,-2.6605 -4.3463,-4.4818 -0.6713,-1.8402 -1.0097,-4.4377 -1.0093,-7.8008 l -0.003,-2.9481 10.8306,-8e-4 0.002,5.4614 c -0.003,1.6745 0.1379,2.7521 0.4523,3.2452 0.3006,0.4869 0.8276,0.7143 1.6162,0.714 0.7858,-4e-4 1.3345,-0.3156 1.7402,-0.92 0.3498,-0.6036 0.557,-1.5103 0.56,-2.7111 -0.003,-2.6221 -0.3717,-4.3569 -1.0839,-5.1871 -0.7302,-0.7945 -2.5638,-2.1458 -5.4394,-4.0574 -2.9089,-1.9183 -4.8273,-3.3144 -5.775,-4.1834 -0.9471,-0.8829 -1.7496,-2.0812 -2.3529,-3.6348 -0.6241,-1.518 -0.9237,-3.4706 -0.9246,-5.839 -0.002,-3.4385 0.4392,-5.9531 1.3222,-7.5411 0.8801,-1.5854 2.2975,-2.8371 4.251,-3.7218 1.9586,-0.8707 4.2986,-1.3351 7.0849,-1.3325 3.0232,-3e-4 5.6058,0.4883 7.7458,1.4435 2.1357,0.9997 3.5582,2.2336 4.2418,3.7231 0.698,1.4761 1.0254,3.9896 1.0258,7.5701 z m 29.6559,13.5464 -14.4751,-0.001 6e-4,7.9635 c -0.002,1.6661 0.1135,2.7346 0.3332,3.2243 0.2704,0.4748 0.7222,0.7023 1.3938,0.7007 0.8581,0.002 1.4352,-0.3261 1.6999,-0.9633 0.2836,-0.6226 0.4353,-1.8544 0.4378,-3.6822 l -0.004,-4.84 h 10.6133 v 2.7112 c -0.002,2.2819 -0.1562,3.9957 -0.4415,5.2229 -0.2852,1.2244 -0.9327,2.5337 -2.0007,3.9119 -1.057,1.3841 -2.3892,2.4326 -3.9954,3.1065 -1.6351,0.7036 -3.6364,1.0405 -6.0827,1.0387 -2.374,7e-4 -4.4521,-0.3338 -6.2646,-1.0129 -1.7927,-0.6895 -3.215,-1.6085 -4.2065,-2.819 -1.0311,-1.1923 -1.7187,-2.4869 -2.1169,-3.9302 -0.3878,-1.4235 -0.5794,-3.5172 -0.5787,-6.2506 l 7e-4,-10.7107 c -0.001,-3.2323 0.4401,-5.7413 1.305,-7.6086 0.8619,-1.8618 2.3018,-3.28 4.2842,-4.2723 1.968,-0.9818 4.2451,-1.479 6.8002,-1.479 3.1234,0.003 5.7108,0.5951 7.77,1.7871 2.0375,1.1802 3.4783,2.7686 4.3035,4.7506 0.7979,1.9644 1.2226,4.7238 1.2212,8.2764 z m -11.2266,-5.9731 -5e-4,-2.7 c -0.001,-1.8781 -0.0839,-3.1014 -0.3114,-3.6889 -0.1818,-0.5386 -0.6179,-0.8157 -1.2365,-0.815 -0.7718,-0.002 -1.2448,0.2184 -1.4226,0.6831 -0.2012,0.4945 -0.2789,1.7624 -0.2784,3.8215 l 6e-4,2.6973 z m 26.0879,-13.0627 -0.4505,4.8437 c 1.6286,-3.4706 3.9773,-5.3001 7.0492,-5.4993 l -6e-4,12.9454 c -2.0285,-10e-4 -3.5371,0.2722 -4.5005,0.8125 -0.9755,0.565 -1.5625,1.3359 -1.773,2.3372 -0.2428,0.9695 -0.3255,3.257 -0.3271,6.8152 l -3e-4,14.5308 -11.2095,-10e-4 v -36.7856 z m 33.2498,-0.003 -5.2468,36.7862 -14.5951,0.003 -5.62,-36.7868 10.0115,-10e-4 3.1285,26.8277 c 0.238,-1.9505 0.64,-6.7597 1.1911,-14.4002 0.3689,-4.2614 0.72,-8.4119 1.1444,-12.4262 z"
     style="fill:#334c8d;fill-rule:evenodd"
     id="path12" />
  <text
     xml:space="preserve"
     style="font-weight:bold;font-size:42.6667px;line-height:0.5;font-family:Verdana;-inkscape-font-specification:'Verdana Bold';letter-spacing:31.6834px;fill:#000000;fill-opacity:1;stroke-width:1.05611"
     id="text1002"
     inkscape:transform-center-x="-1.9655033"
     inkscape:transform-center-y="211.73291"
     transform="rotate(-9.6126118,191.81209,242.0025)"><textPath
       xlink:href="#path1032"
       id="textPath1034"
       style="font-style:normal;font-variant:normal;font-weight:bold;font-stretch:normal;font-size:42.6667px;font-family:Arial;-inkscape-font-specification:'Arial Bold';fill:#fffffc;fill-opacity:1">BRĂILA</textPath></text>
  <path
     d="m 144.30309,154.25627 52.6008,0.003 0.002,-52.8796 48.5635,-0.001 8e-4,52.64 c -16.2155,17.2832 -33.398,34.6469 -51.6807,50.4062 l -49.4858,-6e-4 z"
     style="fill:#334c8d;fill-rule:evenodd"
     id="path8" />
  <path
     style="fill:none;stroke:none;stroke-width:1px;stroke-linecap:butt;stroke-linejoin:miter;stroke-opacity:1"
     d="m 73.128692,427.62867 c 2.287021,1.9385 4.75395,3.64483 6.882153,5.70404 87.803295,84.95693 245.214855,95.06859 347.617845,-5.70404"
     id="path1032"
     sodipodi:nodetypes="csc" />
</svg>
